<svg  fill="none" xmlns="http://www.w3.org/2000/svg">
<g clip-path="url(#clip0_1_10)">
<path fill-rule="evenodd" clip-rule="evenodd" d="M26.6667 4C27.3739 4 28.0522 4.28095 28.5523 4.78105C29.0524 5.28115 29.3333 5.95942 29.3333 6.66667V25.3333C29.3333 26.0406 29.0524 26.7189 28.5523 27.219C28.0522 27.719 27.3739 28 26.6667 28H5.33332C4.62608 28 3.9478 27.719 3.4477 27.219C2.94761 26.7189 2.66666 26.0406 2.66666 25.3333V6.66667C2.66666 5.95942 2.94761 5.28115 3.4477 4.78105C3.9478 4.28095 4.62608 4 5.33332 4H26.6667ZM26.6667 6.66667H5.33332V25.3333H26.6667V6.66667ZM22.6667 20C23.0065 20.0004 23.3334 20.1305 23.5805 20.3638C23.8276 20.5971 23.9763 20.9159 23.9962 21.2552C24.0161 21.5944 23.9058 21.9285 23.6876 22.1891C23.4695 22.4497 23.1601 22.6172 22.8227 22.6573L22.6667 22.6667H9.33332C8.99348 22.6663 8.66661 22.5362 8.4195 22.3029C8.17238 22.0696 8.02368 21.7507 8.00376 21.4115C7.98384 21.0722 8.09422 20.7382 8.31234 20.4776C8.53046 20.217 8.83986 20.0495 9.17732 20.0093L9.33332 20H22.6667ZM13.3333 9.33333C14.0406 9.33333 14.7188 9.61428 15.2189 10.1144C15.719 10.6145 16 11.2928 16 12V14.6667C16 15.3739 15.719 16.0522 15.2189 16.5523C14.7188 17.0524 14.0406 17.3333 13.3333 17.3333H10.6667C9.95941 17.3333 9.28114 17.0524 8.78104 16.5523C8.28094 16.0522 7.99999 15.3739 7.99999 14.6667V12C7.99999 11.2928 8.28094 10.6145 8.78104 10.1144C9.28114 9.61428 9.95941 9.33333 10.6667 9.33333H13.3333ZM22.6667 14.6667C23.0203 14.6667 23.3594 14.8071 23.6095 15.0572C23.8595 15.3072 24 15.6464 24 16C24 16.3536 23.8595 16.6928 23.6095 16.9428C23.3594 17.1929 23.0203 17.3333 22.6667 17.3333H18.6667C18.313 17.3333 17.9739 17.1929 17.7238 16.9428C17.4738 16.6928 17.3333 16.3536 17.3333 16C17.3333 15.6464 17.4738 15.3072 17.7238 15.0572C17.9739 14.8071 18.313 14.6667 18.6667 14.6667H22.6667ZM13.3333 12H10.6667V14.6667H13.3333V12ZM22.6667 9.33333C23.0065 9.33371 23.3334 9.46384 23.5805 9.69713C23.8276 9.93042 23.9763 10.2493 23.9962 10.5885C24.0161 10.9278 23.9058 11.2618 23.6876 11.5224C23.4695 11.783 23.1601 11.9505 22.8227 11.9907L22.6667 12H18.6667C18.3268 11.9996 17.9999 11.8695 17.7528 11.6362C17.5057 11.4029 17.357 11.0841 17.3371 10.7448C17.3172 10.4056 17.4276 10.0715 17.6457 9.81089C17.8638 9.55029 18.1732 9.3828 18.5107 9.34267L18.6667 9.33333H22.6667Z" />
</g>
<defs>
<clipPath id="clip0_1_10">
<rect width="32" height="32" fill="white"/>
</clipPath>
</defs>
</svg>
