<svg  viewBox="0 0 32 32" xmlns="http://www.w3.org/2000/svg">
<g clip-path="url(#clip0_102_1204)">
<path fill-rule="evenodd" clip-rule="evenodd" d="M12 2.66669C11.2928 2.66669 10.6145 2.94764 10.1144 3.44774C9.61428 3.94783 9.33333 4.62611 9.33333 5.33335V8.00002H12V5.33335H26.6667V20H24V22.6667H26.6667C27.3739 22.6667 28.0522 22.3857 28.5523 21.8856C29.0524 21.3855 29.3333 20.7073 29.3333 20V5.33335C29.3333 4.62611 29.0524 3.94783 28.5523 3.44774C28.0522 2.94764 27.3739 2.66669 26.6667 2.66669H12ZM5.33333 9.33335C4.62609 9.33335 3.94781 9.61431 3.44771 10.1144C2.94762 10.6145 2.66667 11.2928 2.66667 12V26.6667C2.66667 27.3739 2.94762 28.0522 3.44771 28.5523C3.94781 29.0524 4.62609 29.3334 5.33333 29.3334H20C20.7072 29.3334 21.3855 29.0524 21.8856 28.5523C22.3857 28.0522 22.6667 27.3739 22.6667 26.6667V12C22.6667 11.2928 22.3857 10.6145 21.8856 10.1144C21.3855 9.61431 20.7072 9.33335 20 9.33335H5.33333ZM5.33333 12H20V26.6667H5.33333V12Z" />
</g>
</svg>
