<svg  viewBox="0 0 32 32"  xmlns="http://www.w3.org/2000/svg">
<path fill-rule="evenodd" clip-rule="evenodd" d="M6 27C5.73478 27 5.48043 26.8946 5.29289 26.7071C5.10536 26.5196 5 26.2652 5 26V6C5 5.73478 5.10536 5.48043 5.29289 5.29289C5.48043 5.10536 5.73478 5 6 5H24.5C24.8978 5 25.2794 4.84196 25.5607 4.56066C25.842 4.27936 26 3.89782 26 3.5C26 3.10218 25.842 2.72064 25.5607 2.43934C25.2794 2.15804 24.8978 2 24.5 2H6C4.93913 2 3.92172 2.42143 3.17157 3.17157C2.42143 3.92172 2 4.93913 2 6V26C2 27.0609 2.42143 28.0783 3.17157 28.8284C3.92172 29.5786 4.93913 30 6 30H26C27.0609 30 28.0783 29.5786 28.8284 28.8284C29.5786 28.0783 30 27.0609 30 26V19.5C30 19.1022 29.842 18.7206 29.5607 18.4393C29.2794 18.158 28.8978 18 28.5 18C28.1022 18 27.7206 18.158 27.4393 18.4393C27.158 18.7206 27 19.1022 27 19.5V26C27 26.2652 26.8946 26.5196 26.7071 26.7071C26.5196 26.8946 26.2652 27 26 27H6ZM31.56 9.36C31.825 9.07565 31.9692 8.69956 31.9624 8.31096C31.9555 7.92235 31.7981 7.55158 31.5232 7.27676C31.2484 7.00193 30.8776 6.84451 30.489 6.83765C30.1004 6.83079 29.7244 6.97504 29.44 7.24L18.324 18.354L14.578 14.482C14.4413 14.3392 14.2778 14.2248 14.0967 14.1454C13.9157 14.066 13.7208 14.0232 13.5231 14.0194C13.3255 14.0156 13.1291 14.0509 12.9451 14.1233C12.7612 14.1956 12.5934 14.3037 12.4513 14.4411C12.3092 14.5786 12.1957 14.7427 12.1173 14.9242C12.0389 15.1056 11.9972 15.3008 11.9945 15.4985C11.9917 15.6961 12.0281 15.8924 12.1015 16.0759C12.1748 16.2595 12.2838 16.4267 12.422 16.568L17.228 21.536C17.3663 21.6794 17.5317 21.7939 17.7147 21.8726C17.8977 21.9514 18.0946 21.9929 18.2938 21.9948C18.493 21.9967 18.6906 21.9588 18.875 21.8835C19.0595 21.8081 19.2271 21.6968 19.368 21.556L31.56 9.36Z" />
</svg>
