<svg  viewBox="0 0 32 32"  xmlns="http://www.w3.org/2000/svg">
<path d="M16 2.66669C23.364 2.66669 29.3333 8.63602 29.3333 16C29.3333 23.364 23.364 29.3334 16 29.3334C8.636 29.3334 2.66667 23.364 2.66667 16C2.66667 8.63602 8.636 2.66669 16 2.66669ZM16 5.33335C13.171 5.33335 10.4579 6.45716 8.45753 8.45755C6.45714 10.4579 5.33333 13.171 5.33333 16C5.33333 18.829 6.45714 21.5421 8.45753 23.5425C10.4579 25.5429 13.171 26.6667 16 26.6667C18.829 26.6667 21.5421 25.5429 23.5425 23.5425C25.5429 21.5421 26.6667 18.829 26.6667 16C26.6667 13.171 25.5429 10.4579 23.5425 8.45755C21.5421 6.45716 18.829 5.33335 16 5.33335ZM16 9.33335C17.4034 9.33389 18.7709 9.77732 19.9076 10.6005C21.0443 11.4236 21.8923 12.5845 22.3306 13.9178C22.769 15.251 22.7754 16.6886 22.3489 18.0257C21.9225 19.3627 21.085 20.5312 19.9557 21.3644C18.8264 22.1977 17.4629 22.6533 16.0595 22.6664C14.6561 22.6795 13.2844 22.2493 12.1398 21.4372C10.9952 20.6251 10.1361 19.4725 9.68481 18.1435C9.23356 16.8146 9.21321 15.3772 9.62667 14.036C9.93856 14.733 10.4804 15.3017 11.1614 15.6469C11.8425 15.9922 12.6214 16.093 13.3679 15.9326C14.1144 15.7722 14.7832 15.3603 15.2624 14.7658C15.7415 14.1713 16.0019 13.4302 16 12.6667C16.0002 12.0246 15.8149 11.3962 15.4665 10.8569C15.1181 10.3176 14.6214 9.89044 14.036 9.62669C14.6724 9.4316 15.3344 9.33273 16 9.33335Z" />
</svg>
