<svg  viewBox="0 0 32 32"  xmlns="http://www.w3.org/2000/svg">
<path d="M7.99999 28C7.26666 28 6.63911 27.7391 6.11733 27.2173C5.59466 26.6947 5.33333 26.0667 5.33333 25.3333V13.3333C5.33333 12.9111 5.42799 12.5111 5.61733 12.1333C5.80577 11.7556 6.06666 11.4444 6.4 11.2L14.4 5.2C14.6444 5.02222 14.9 4.88889 15.1667 4.8C15.4333 4.71111 15.7111 4.66666 16 4.66666C16.2889 4.66666 16.5667 4.71111 16.8333 4.8C17.1 4.88889 17.3556 5.02222 17.6 5.2L25.6 11.2C25.9333 11.4444 26.1947 11.7556 26.384 12.1333C26.5724 12.5111 26.6667 12.9111 26.6667 13.3333V25.3333C26.6667 26.0667 26.4058 26.6947 25.884 27.2173C25.3613 27.7391 24.7333 28 24 28H18.6667V18.6667H13.3333V28H7.99999Z" />
</svg>
